<?xml version="1.0" standalone="no"?><!DOCTYPE svg PUBLIC "-//W3C//DTD SVG 1.1//EN" "http://www.w3.org/Graphics/SVG/1.1/DTD/svg11.dtd"><svg t="1735651487111" class="icon" viewBox="0 0 1024 1024" version="1.1" xmlns="http://www.w3.org/2000/svg" p-id="5256" xmlns:xlink="http://www.w3.org/1999/xlink" width="200" height="200"><path d="M512 0c282.752 0 512 229.248 512 512s-229.248 512-512 512S0 794.752 0 512 229.248 0 512 0z m0 64C264.576 64 64 264.576 64 512S264.576 960 512 960 960 759.424 960 512 759.424 64 512 64z" p-id="5257" fill="#ffffff"></path><path d="M512 256a32 32 0 0 1 32 32v192h192a32 32 0 0 1 0 64h-192v192a32 32 0 0 1-64 0v-192h-192a32 32 0 0 1 0-64h192v-192A32 32 0 0 1 512 256z" p-id="5258" fill="#ffffff"></path></svg>