<?xml version="1.0" standalone="no"?><!DOCTYPE svg PUBLIC "-//W3C//DTD SVG 1.1//EN" "http://www.w3.org/Graphics/SVG/1.1/DTD/svg11.dtd"><svg t="1735897397269" class="icon" viewBox="0 0 1024 1024" version="1.1" xmlns="http://www.w3.org/2000/svg" p-id="2332" xmlns:xlink="http://www.w3.org/1999/xlink" width="200" height="200"><path d="M21.333333 966.784a21.333333 21.333333 0 0 1-21.333333-21.333333v-512a21.333333 21.333333 0 0 1 21.333333-21.333334h213.333334a21.333333 21.333333 0 0 1 21.333333 21.333334v39.552c93.482667-24.234667 234.666667-186.154667 234.666667-338.218667 0-40.277333 25.386667-71.893333 61.781333-76.885333 3.072-0.426667 6.229333-0.64 9.429333-0.64 16.384 0 72.021333 7.381333 98.688 102.442666 17.152 61.056-13.013333 158.464-31.914666 209.749334H938.666667c47.061333 0 85.333333 38.272 85.333333 85.333333 0 33.664-21.717333 82.901333-58.154667 100.309333a85.461333 85.461333 0 0 1-41.6 129.578667 85.461333 85.461333 0 0 1-42.666666 128c9.386667 13.909333 14.421333 30.250667 14.421333 47.445333 0 52.906667-46.421333 64-85.333333 64h-277.333334c-77.354667 0-117.461333-8.32-173.056-19.84-28.458667-5.888-60.373333-12.501333-104.277333-19.370666v60.544a21.333333 21.333333 0 0 1-21.333333 21.333333h-213.333334z m192-42.666667v-469.333333H42.666667v469.333333h170.666666z m42.666667-82.389333c48 7.338667 82.346667 14.464 112.896 20.778667 53.162667 11.008 91.477333 18.986667 164.437333 18.986666H810.666667c42.666667 0 42.666667-11.818667 42.666666-21.333333a42.666667 42.666667 0 0 0-42.666666-42.666667 21.333333 21.333333 0 0 1 0-42.666666h42.666666a42.666667 42.666667 0 0 0 0-85.333334 21.333333 21.333333 0 0 1 0-42.666666h42.666667a42.666667 42.666667 0 0 0 0-85.333334 21.333333 21.333333 0 0 1 0-42.666666h42.666667c18.730667 0 42.666667-35.882667 42.666666-64 0-23.509333-19.114667-42.666667-42.666666-42.666667h-341.333334a21.290667 21.290667 0 0 1-19.584-29.781333c16.938667-39.637333 57.514667-154.88 41.728-211.157334-14.762667-52.565333-39.552-71.296-57.898666-71.296a27.733333 27.733333 0 0 0-3.285334 0.213334c-14.72 2.048-24.96 16.298667-24.96 34.645333 0 79.616-35.84 171.264-98.304 251.434667C379.477333 457.557333 311.850667 506.624 256 516.821333v324.906667z" p-id="2333"></path><path d="M138.666667 849.450667m-32 0a32 32 0 1 0 64 0 32 32 0 1 0-64 0Z" p-id="2334"></path></svg>